<svg width="25" height="25" viewBox="0 0 25 25" fill="none" xmlns="http://www.w3.org/2000/svg">
    <path d="M13.0208 12.4482C13.5243 11.8927 13.9108 11.259 14.1802 10.5472C14.449 9.83539 14.5833 9.09755 14.5833 8.33366C14.5833 7.56977 14.449 6.83192 14.1802 6.12012C13.9108 5.40831 13.5243 4.77463 13.0208 4.21908C14.0625 4.35796 14.9306 4.81803 15.625 5.59928C16.3194 6.38053 16.6667 7.29199 16.6667 8.33366C16.6667 9.37533 16.3194 10.2868 15.625 11.068C14.9306 11.8493 14.0625 12.3094 13.0208 12.4482ZM18.2552 20.8337C18.4115 20.7121 18.533 20.56 18.6198 20.3774C18.7066 20.1955 18.75 19.9916 18.75 19.766V17.7087C18.75 17.0837 18.6111 16.4892 18.3333 15.9253C18.0556 15.3607 17.691 14.8614 17.2396 14.4274C18.125 14.7399 18.9455 15.1434 19.701 15.6378C20.4559 16.133 20.8333 16.8232 20.8333 17.7087V19.792C20.8333 20.0871 20.7333 20.3344 20.5333 20.5337C20.334 20.7337 20.0868 20.8337 19.7917 20.8337H18.2552ZM21.875 13.542C21.5799 13.542 21.3326 13.442 21.1333 13.242C20.9333 13.0427 20.8333 12.7955 20.8333 12.5003V11.4587H19.7917C19.4965 11.4587 19.2493 11.3587 19.05 11.1587C18.85 10.9594 18.75 10.7121 18.75 10.417C18.75 10.1219 18.85 9.87428 19.05 9.67428C19.2493 9.47498 19.4965 9.37533 19.7917 9.37533H20.8333V8.33366C20.8333 8.03852 20.9333 7.79095 21.1333 7.59095C21.3326 7.39165 21.5799 7.29199 21.875 7.29199C22.1701 7.29199 22.4174 7.39165 22.6167 7.59095C22.8167 7.79095 22.9167 8.03852 22.9167 8.33366V9.37533H23.9583C24.2535 9.37533 24.5007 9.47498 24.7 9.67428C24.9 9.87428 25 10.1219 25 10.417C25 10.7121 24.9 10.9594 24.7 11.1587C24.5007 11.3587 24.2535 11.4587 23.9583 11.4587H22.9167V12.5003C22.9167 12.7955 22.8167 13.0427 22.6167 13.242C22.4174 13.442 22.1701 13.542 21.875 13.542ZM8.33333 12.5003C7.1875 12.5003 6.2066 12.0923 5.39062 11.2764C4.57465 10.4604 4.16667 9.47949 4.16667 8.33366C4.16667 7.18783 4.57465 6.20692 5.39062 5.39095C6.2066 4.57498 7.1875 4.16699 8.33333 4.16699C9.47917 4.16699 10.4601 4.57498 11.276 5.39095C12.092 6.20692 12.5 7.18783 12.5 8.33366C12.5 9.47949 12.092 10.4604 11.276 11.2764C10.4601 12.0923 9.47917 12.5003 8.33333 12.5003ZM1.04167 20.8337C0.746528 20.8337 0.499306 20.7337 0.3 20.5337C0.1 20.3344 0 20.0871 0 19.792V17.917C0 17.3267 0.152083 16.784 0.45625 16.2889C0.759722 15.7944 1.16319 15.417 1.66667 15.1566C2.74306 14.6184 3.83681 14.2146 4.94792 13.9451C6.05903 13.6764 7.1875 13.542 8.33333 13.542C9.47917 13.542 10.6076 13.6764 11.7187 13.9451C12.8299 14.2146 13.9236 14.6184 15 15.1566C15.5035 15.417 15.9069 15.7944 16.2104 16.2889C16.5146 16.784 16.6667 17.3267 16.6667 17.917V19.792C16.6667 20.0871 16.567 20.3344 16.3677 20.5337C16.1677 20.7337 15.9201 20.8337 15.625 20.8337H1.04167Z" fill="#A1C2F5"/>
</svg>