<svg width="18" height="14" viewBox="0 0 18 14" fill="none" xmlns="http://www.w3.org/2000/svg">
    <defs>
        <linearGradient id="paint0_linear_410_4712" x1="8.89506" y1="6.41699" x2="8.89506" y2="11.667" gradientUnits="userSpaceOnUse">
            <stop stop-color="#0D015B"/>
            <stop offset="1" stop-color="#8EEBFB"/>
        </linearGradient>
        <linearGradient id="paint1_linear_410_4712" x1="8.89534" y1="6.41699" x2="8.89534" y2="11.0837" gradientUnits="userSpaceOnUse">
            <stop stop-color="#0D015B"/>
            <stop offset="1" stop-color="#0D015B"/>
        </linearGradient>
    </defs>
    <path d="M5.18864 3.79199H2.96484V3.26699C2.96484 3.06283 3.15016 2.91699 3.4096 2.91699H4.74388C5.00332 2.91699 5.18864 3.06283 5.18864 3.26699V3.79199Z" fill="#546E7A"/>
    <path d="M14.8252 11.667H2.96495C2.14956 11.667 1.48242 11.142 1.48242 10.5003V6.41699H16.3077V10.5003C16.3077 11.142 15.6406 11.667 14.8252 11.667Z" fill="url(#paint0_linear_410_4712)"/>
    <path d="M4.7072 6.41699C4.55894 6.79616 4.44775 7.17533 4.44775 7.58366C4.44775 9.50866 6.44917 11.0837 8.89534 11.0837C11.3415 11.0837 13.3429 9.50866 13.3429 7.58366C13.3429 7.17533 13.2317 6.79616 13.0835 6.41699H4.7072Z" fill="url(#paint1_linear_410_4712)"/>
    <path d="M2.96495 3.5H14.8252C15.6406 3.5 16.3077 4.025 16.3077 4.66667V6.41667H1.48242V4.66667C1.48242 4.025 2.14956 3.5 2.96495 3.5Z" fill="#78909C"/>
    <path d="M12.5646 3.82129H5.26318L6.52333 2.33379C6.67159 2.15879 6.89396 2.07129 7.15341 2.07129H10.7115C10.9709 2.07129 11.1933 2.15879 11.3415 2.33379L12.5646 3.82129Z" fill="#78909C"/>
    <path d="M13.0833 6.41634C12.4903 5.04551 10.8225 4.08301 8.89517 4.08301C6.96789 4.08301 5.30004 5.04551 4.70703 6.41634H13.0833Z" fill="#455A64"/>
    <path d="M8.89526 10.208C10.7375 10.208 12.2309 9.03276 12.2309 7.58301C12.2309 6.13326 10.7375 4.95801 8.89526 4.95801C7.05301 4.95801 5.55957 6.13326 5.55957 7.58301C5.55957 9.03276 7.05301 10.208 8.89526 10.208Z" fill="#42A5F5"/>
    <path d="M10.7483 6.70807C10.3035 6.29974 9.63637 6.06641 8.96923 6.06641C8.30209 6.06641 7.63495 6.29974 7.1902 6.70807C7.00488 6.85391 7.04194 7.08724 7.22726 7.23307C7.41257 7.37891 7.70908 7.34974 7.8944 7.20391C8.45034 6.70807 9.48811 6.70807 10.0441 7.20391C10.1553 7.29141 10.2664 7.32057 10.4147 7.32057C10.5259 7.32057 10.6371 7.29141 10.7483 7.23307C10.8965 7.11641 10.9336 6.85391 10.7483 6.70807Z" fill="#0E3255"/>
    <path d="M13.3428 4.375H15.1959V5.54167H13.3428V4.375Z" fill="#0E3255"/>
</svg>