<svg width="25" height="25" viewBox="0 0 25 25" fill="none" xmlns="http://www.w3.org/2000/svg">
    <path d="M7.678 15.894C7.7818 15.9982 7.86133 16.124 7.91094 16.2625C7.96055 16.4009 7.97901 16.5486 7.965 16.695C7.89472 17.3726 7.76148 18.0421 7.567 18.695C8.962 18.372 9.814 17.998 10.201 17.802C10.4205 17.6908 10.6733 17.6645 10.911 17.728C11.5924 17.9097 12.2948 18.0011 13 18C16.996 18 20 15.193 20 12C20 8.808 16.996 6 13 6C9.004 6 6 8.808 6 12C6 13.468 6.617 14.83 7.678 15.894ZM7.185 19.799C6.94807 19.846 6.71037 19.889 6.472 19.928C6.272 19.96 6.12 19.752 6.199 19.566C6.28779 19.3566 6.36918 19.1441 6.443 18.929L6.446 18.919C6.694 18.199 6.896 17.371 6.97 16.6C5.743 15.37 5 13.76 5 12C5 8.134 8.582 5 13 5C17.418 5 21 8.134 21 12C21 15.866 17.418 19 13 19C12.2077 19.0011 11.4186 18.8982 10.653 18.694C10.133 18.957 9.014 19.436 7.185 19.799Z" fill="#A1C2F5"/>
    <path d="M9 9.5C9 9.36739 9.05268 9.24021 9.14645 9.14645C9.24021 9.05268 9.36739 9 9.5 9H16.5C16.6326 9 16.7598 9.05268 16.8536 9.14645C16.9473 9.24021 17 9.36739 17 9.5C17 9.63261 16.9473 9.75979 16.8536 9.85355C16.7598 9.94732 16.6326 10 16.5 10H9.5C9.36739 10 9.24021 9.94732 9.14645 9.85355C9.05268 9.75979 9 9.63261 9 9.5ZM9 12C9 11.8674 9.05268 11.7402 9.14645 11.6464C9.24021 11.5527 9.36739 11.5 9.5 11.5H16.5C16.6326 11.5 16.7598 11.5527 16.8536 11.6464C16.9473 11.7402 17 11.8674 17 12C17 12.1326 16.9473 12.2598 16.8536 12.3536C16.7598 12.4473 16.6326 12.5 16.5 12.5H9.5C9.36739 12.5 9.24021 12.4473 9.14645 12.3536C9.05268 12.2598 9 12.1326 9 12ZM9 14.5C9 14.3674 9.05268 14.2402 9.14645 14.1464C9.24021 14.0527 9.36739 14 9.5 14H13.5C13.6326 14 13.7598 14.0527 13.8536 14.1464C13.9473 14.2402 14 14.3674 14 14.5C14 14.6326 13.9473 14.7598 13.8536 14.8536C13.7598 14.9473 13.6326 15 13.5 15H9.5C9.36739 15 9.24021 14.9473 9.14645 14.8536C9.05268 14.7598 9 14.6326 9 14.5Z" fill="#A1C2F5"/>
</svg>