<svg width="11" height="11" viewBox="0 0 11 11" fill="none" xmlns="http://www.w3.org/2000/svg">
<circle cx="5.5" cy="5.5" r="5.5" fill="#808080" fill-opacity="0.25"/>
<g clip-path="url(#clip0_410_1096)">
<path fill-rule="evenodd" clip-rule="evenodd" d="M4.92529 7.0117L3.21946 5.30588C3.1676 5.25578 3.09813 5.22806 3.02603 5.22869C2.95392 5.22932 2.88495 5.25824 2.83396 5.30922C2.78298 5.36021 2.75405 5.42919 2.75343 5.50129C2.7528 5.57339 2.78052 5.64286 2.83061 5.69472L4.75561 7.61973C4.78312 7.64719 4.81613 7.66851 4.85247 7.68228C4.88882 7.69605 4.92767 7.70196 4.96646 7.69962C5.00526 7.69728 5.04312 7.68675 5.07754 7.66871C5.11197 7.65067 5.14218 7.62554 5.16619 7.59498L8.19119 3.74497C8.23366 3.68745 8.25205 3.61564 8.24247 3.54477C8.23288 3.47391 8.19607 3.40957 8.13984 3.36539C8.08361 3.32122 8.01238 3.30068 7.94126 3.30814C7.87014 3.3156 7.80473 3.35047 7.75889 3.40535L4.92529 7.0117Z" fill="#3EB489"/>
</g>
<defs>
<clipPath id="clip0_410_1096">
<rect width="6.6" height="6.6" fill="white" transform="translate(2.19995 2.2002)"/>
</clipPath>
</defs>
</svg>
