<svg width="15" height="12" viewBox="0 0 15 12" fill="none" xmlns="http://www.w3.org/2000/svg">
<path d="M6.43989 8.76334L12.829 0.579059C12.8343 0.572505 12.84 0.566249 12.846 0.560316L12.8701 0.536517C13.0788 0.350162 13.3489 0.247906 13.6285 0.250033C13.9211 0.252259 14.2017 0.36868 14.411 0.575142C14.6203 0.781644 14.7418 1.06209 14.7496 1.3574C14.7574 1.6527 14.6507 1.93926 14.4525 2.15664L14.4468 2.16287L14.4416 2.16946L7.10572 11.3934C7.00345 11.5024 6.8808 11.59 6.74484 11.6511C6.60623 11.7134 6.4566 11.747 6.30488 11.7498C6.15317 11.7526 6.00241 11.7247 5.86161 11.6676C5.72082 11.6104 5.59283 11.5253 5.48534 11.4173L5.48532 11.4172L0.616492 6.52216L0.616603 6.52205L0.610161 6.51602C0.499081 6.41195 0.409908 6.28639 0.348031 6.14677C0.286153 6.00714 0.25286 5.85637 0.250176 5.70345C0.247493 5.55052 0.275475 5.39865 0.332421 5.25691C0.389365 5.11517 0.474086 4.9865 0.581461 4.87855C0.688831 4.7706 0.816652 4.68557 0.957261 4.62847C1.09787 4.57137 1.24843 4.54335 1.39997 4.54604C1.55151 4.54873 1.701 4.58207 1.83952 4.64413C1.97806 4.70619 2.10283 4.7957 2.20636 4.90741L2.20624 4.90752L2.21251 4.91381L6.06562 8.78585L6.26551 8.98672L6.43989 8.76334Z" fill="#A1C2F5" stroke="white" stroke-width="0.5"/>
</svg>