<svg width="25" height="25" viewBox="0 0 25 25" fill="none" xmlns="http://www.w3.org/2000/svg">
    <path d="M16.6668 2.08301H8.3335C4.88662 2.08301 2.0835 4.88613 2.0835 8.33301V21.8747C2.0835 22.1509 2.19324 22.4159 2.38859 22.6112C2.58394 22.8066 2.8489 22.9163 3.12516 22.9163H16.6668C20.1137 22.9163 22.9168 20.1132 22.9168 16.6663V8.33301C22.9168 4.88613 20.1137 2.08301 16.6668 2.08301ZM20.8335 16.6663C20.8335 18.9643 18.9647 20.833 16.6668 20.833H4.16683V8.33301C4.16683 6.03509 6.03558 4.16634 8.3335 4.16634H16.6668C18.9647 4.16634 20.8335 6.03509 20.8335 8.33301V16.6663Z" fill="#A1C2F5"/>
    <path d="M7.2915 15.6118V17.6941H9.3738L15.1332 11.942L13.0519 9.86074L7.2915 15.6118ZM16.1144 10.9607L14.0332 8.87741L15.6196 7.29199L17.703 9.37428L16.1144 10.9607Z" fill="#A1C2F5"/>
</svg>