<svg width="25" height="25" viewBox="0 0 25 25" fill="none" xmlns="http://www.w3.org/2000/svg">
    <path d="M19.8384 7.70931C20.2321 7.31556 20.4488 6.79264 20.4488 6.23639C20.4488 5.68014 20.2321 5.15723 19.8384 4.76348L18.1863 3.11139C17.7925 2.71764 17.2696 2.50098 16.7134 2.50098C16.1571 2.50098 15.6342 2.71764 15.2415 3.11035L4.1665 14.151V18.7499H8.76338L19.8384 7.70931ZM16.7134 4.58431L18.3665 6.23535L16.7103 7.88535L15.0582 6.23431L16.7134 4.58431ZM6.24984 16.6666V15.0156L13.5832 7.70514L15.2353 9.35723L7.90296 16.6666H6.24984ZM4.1665 20.8333H20.8332V22.9166H4.1665V20.8333Z" fill="#A1C2F5"/>
</svg>