<svg width="14" height="15" viewBox="0 0 14 15" fill="none" xmlns="http://www.w3.org/2000/svg">
    <path d="M6.12418 0C5.19604 0 4.30592 0.371839 3.64964 1.03372C2.99335 1.69559 2.62465 2.59329 2.62465 3.52933C2.62465 4.46536 2.99335 5.36306 3.64964 6.02494C4.30592 6.68681 5.19604 7.05865 6.12418 7.05865C7.05231 7.05865 7.94243 6.68681 8.59872 6.02494C9.25501 5.36306 9.62371 4.46536 9.62371 3.52933C9.62371 2.59329 9.25501 1.69559 8.59872 1.03372C7.94243 0.371839 7.05231 0 6.12418 0ZM3.49953 3.52933C3.49953 2.8273 3.77605 2.15403 4.26827 1.65762C4.76049 1.16121 5.42808 0.882331 6.12418 0.882331C6.82028 0.882331 7.48787 1.16121 7.98008 1.65762C8.4723 2.15403 8.74882 2.8273 8.74882 3.52933C8.74882 4.23135 8.4723 4.90463 7.98008 5.40103C7.48787 5.89744 6.82028 6.17632 6.12418 6.17632C5.42808 6.17632 4.76049 5.89744 4.26827 5.40103C3.77605 4.90463 3.49953 4.23135 3.49953 3.52933ZM1.75764 7.94098C1.52723 7.94005 1.2989 7.98501 1.08575 8.07326C0.872602 8.16152 0.678825 8.29134 0.515532 8.45529C0.35224 8.61923 0.222644 8.81407 0.134177 9.02864C0.0457108 9.2432 0.000113308 9.47327 0 9.70565C0 11.1977 0.728777 12.3226 1.86787 13.0559C2.7865 13.6461 3.96584 13.9814 5.25367 14.0838C5.26242 13.9938 5.27642 13.9029 5.29916 13.8111L5.44789 13.2129C4.21168 13.1309 3.13295 12.8229 2.33856 12.3112C1.41993 11.72 0.874882 10.8615 0.874882 9.70565C0.874882 9.21772 1.26683 8.82331 1.75764 8.82331H8.69895L9.57384 7.94098H1.75764ZM6.98069 11.8029L11.2064 7.54129C11.5133 7.23181 11.9297 7.05799 12.3637 7.05808C12.7978 7.05816 13.214 7.23213 13.5209 7.54173C13.8277 7.85132 14.0001 8.27117 14 8.70892C13.9999 9.14667 13.8274 9.56646 13.5204 9.87594L9.29475 14.1367C9.04859 14.3851 8.74014 14.5614 8.40237 14.6467L7.0918 14.9767C6.96148 15.0094 6.82498 15.0076 6.69556 14.9715C6.56613 14.9353 6.44819 14.866 6.35318 14.7703C6.25817 14.6745 6.18933 14.5556 6.15334 14.4251C6.11735 14.2947 6.11544 14.157 6.1478 14.0255L6.47588 12.7038C6.55979 12.3629 6.73468 12.0516 6.98156 11.8038L6.98069 11.8029Z" fill="#A1C2F5"/>
</svg>