<svg width="26" height="26" viewBox="0 0 26 26" fill="none" xmlns="http://www.w3.org/2000/svg">
    <path d="M9.83653 23.8332H16.0865C21.2949 23.8332 23.3782 21.6665 23.3782 16.2498V9.74984C23.3782 4.33317 21.2949 2.1665 16.0865 2.1665H9.83653C4.62819 2.1665 2.54486 4.33317 2.54486 9.74984V16.2498C2.54486 21.6665 4.62819 23.8332 9.83653 23.8332Z" stroke="#8593A8" stroke-width="1.3" stroke-linecap="round" stroke-linejoin="round"/>
    <path d="M9.83663 10.8333C10.9872 10.8333 11.92 9.86328 11.92 8.66667C11.92 7.47005 10.9872 6.5 9.83663 6.5C8.68604 6.5 7.7533 7.47005 7.7533 8.66667C7.7533 9.86328 8.68604 10.8333 9.83663 10.8333Z" stroke="#8593A8" stroke-width="1.3" stroke-linecap="round" stroke-linejoin="round"/>
    <path d="M3.24274 20.5292L8.37815 16.9434C9.20107 16.3692 10.3886 16.4342 11.1282 17.095L11.4719 17.4092C12.2844 18.135 13.5969 18.135 14.4094 17.4092L18.7427 13.5417C19.5552 12.8159 20.8677 12.8159 21.6802 13.5417L23.3782 15.0584" stroke="#8593A8" stroke-width="1.3" stroke-linecap="round" stroke-linejoin="round"/>
</svg>