<svg width="21" height="21" viewBox="0 0 21 21" fill="none" xmlns="http://www.w3.org/2000/svg">
<path d="M10.4895 0.083313C4.7395 0.083313 0.083252 4.74998 0.083252 10.5C0.083252 16.25 4.7395 20.9166 10.4895 20.9166C16.2499 20.9166 20.9166 16.25 20.9166 10.5C20.9166 4.74998 16.2499 0.083313 10.4895 0.083313ZM17.7083 6.33331H14.6353C14.3093 5.04317 13.8266 3.79779 13.1978 2.62498C15.098 3.27915 16.6991 4.59553 17.7083 6.33331ZM10.4999 2.20831C11.3645 3.45831 12.0416 4.84373 12.4895 6.33331H8.51034C8.95825 4.84373 9.63534 3.45831 10.4999 2.20831ZM2.43742 12.5833C2.27075 11.9166 2.16659 11.2187 2.16659 10.5C2.16659 9.78123 2.27075 9.08331 2.43742 8.41665H5.95825C5.87492 9.10415 5.81242 9.79165 5.81242 10.5C5.81242 11.2083 5.87492 11.8958 5.95825 12.5833H2.43742ZM3.29159 14.6666H6.3645C6.69784 15.9687 7.177 17.2187 7.802 18.375C5.89989 17.7244 4.29766 16.4071 3.29159 14.6666ZM6.3645 6.33331H3.29159C4.29766 4.59287 5.89989 3.27557 7.802 2.62498C7.17328 3.79779 6.69052 5.04317 6.3645 6.33331ZM10.4999 18.7916C9.63534 17.5416 8.95825 16.1562 8.51034 14.6666H12.4895C12.0416 16.1562 11.3645 17.5416 10.4999 18.7916ZM12.9374 12.5833H8.06242C7.96867 11.8958 7.89575 11.2083 7.89575 10.5C7.89575 9.79165 7.96867 9.09373 8.06242 8.41665H12.9374C13.0312 9.09373 13.1041 9.79165 13.1041 10.5C13.1041 11.2083 13.0312 11.8958 12.9374 12.5833ZM13.1978 18.375C13.8228 17.2187 14.302 15.9687 14.6353 14.6666H17.7083C16.6991 16.4044 15.098 17.7208 13.1978 18.375ZM15.0416 12.5833C15.1249 11.8958 15.1874 11.2083 15.1874 10.5C15.1874 9.79165 15.1249 9.10415 15.0416 8.41665H18.5624C18.7291 9.08331 18.8333 9.78123 18.8333 10.5C18.8333 11.2187 18.7291 11.9166 18.5624 12.5833H15.0416Z" fill="#A1C2F5"/>
</svg>
