<svg width="24" height="24" viewBox="0 0 24 24" fill="none" xmlns="http://www.w3.org/2000/svg">
<g clip-path="url(#clip0_410_1118)">
<path d="M21.1004 17.7637L21.6754 20.6962C21.7108 20.877 21.6984 21.064 21.6394 21.2385C21.5803 21.413 21.4767 21.5691 21.3388 21.6913C21.2009 21.8134 21.0334 21.8974 20.853 21.935C20.6726 21.9725 20.4856 21.9622 20.3104 21.9052L17.8154 21.0927C15.583 22.5349 12.8967 23.1024 10.2718 22.6863C7.64678 22.2702 5.26774 20.8998 3.59076 18.8379C1.91377 16.776 1.05686 14.1677 1.18429 11.513C1.31173 8.85828 2.41455 6.34403 4.28133 4.45225C6.1481 2.56047 8.64746 1.4243 11.3002 1.26155C13.953 1.09881 16.5725 1.92095 18.6565 3.57035C20.7406 5.21975 22.1424 7.58035 22.5934 10.1996C23.0444 12.8188 22.5128 15.5123 21.1004 17.7637V17.7637Z" stroke="black" stroke-linecap="round" stroke-linejoin="round"/>
<path d="M11.9998 6.1582C16.6363 6.1582 17.9718 10.6212 17.9718 13.2597C17.9718 15.8982 16.0283 17.8202 11.9998 17.8202C7.97133 17.8202 6.02783 15.8982 6.02783 13.2597C6.02783 10.6212 7.36283 6.1582 11.9998 6.1582Z" stroke="black" stroke-linecap="round" stroke-linejoin="round"/>
<path d="M12 15.8326C13.662 15.8326 15.142 15.0181 15.75 12.9336C14.5703 13.4504 13.2862 13.6846 12 13.6176C10.7138 13.6846 9.42971 13.4504 8.25 12.9336C8.858 15.0186 10.338 15.8326 12 15.8326V15.8326Z" stroke="black" stroke-linecap="round" stroke-linejoin="round"/>
</g>
<defs>
<clipPath id="clip0_410_1118">
<rect width="24" height="24" fill="white"/>
</clipPath>
</defs>
</svg>
