<svg width="23" height="23" viewBox="0 0 23 23" fill="none" xmlns="http://www.w3.org/2000/svg">
<path d="M2.10047 6.70493L3.86074 6.6387C3.98093 6.63417 4.09159 6.57625 4.16315 6.47884C4.33025 6.25496 4.51016 6.03827 4.70047 5.83144C5.4784 4.97421 6.41193 4.27925 7.44941 3.78501C8.52427 3.27277 9.6895 2.9869 10.8756 2.94443C12.075 2.89931 13.2459 3.09589 14.3553 3.52518C15.427 3.94006 16.4101 4.5629 17.2502 5.35925C18.0917 6.15276 18.7748 7.1051 19.2615 8.16352C19.7666 9.26065 20.044 10.4355 20.0901 11.6599C20.1362 12.8844 19.9453 14.0769 19.5265 15.2088C19.1213 16.3017 18.5168 17.2947 17.7317 18.1562C16.9467 19.0177 16.0223 19.7079 14.9828 20.2026C13.9088 20.7141 12.756 20.9981 11.5566 21.0432C10.3572 21.0884 9.18642 20.8943 8.0769 20.4625C7.00312 20.0472 6.0295 19.4285 5.18195 18.6284C4.97654 18.4339 4.78336 18.2313 4.5975 18.0232C4.51883 17.9315 4.40163 17.8821 4.28394 17.8865L2.52367 17.9528C2.36592 17.9587 2.275 18.1413 2.36773 18.2735C4.40291 21.2484 7.83909 23.1389 11.6572 22.985C17.6561 22.7439 22.2791 17.5909 21.9889 11.4759C21.7023 5.45798 16.7168 0.779101 10.8025 1.00163C6.99402 1.14492 3.72454 3.28517 1.92087 6.39681C1.84084 6.5355 1.94272 6.71086 2.10047 6.70493ZM0.0921175 12.5736L3.75294 15.303C3.88969 15.4054 4.07884 15.301 4.0724 15.1297L3.9993 13.1869L11.8617 12.8911C11.9719 12.887 12.0585 12.7916 12.0543 12.6791L12.0004 11.2475C11.9962 11.1351 11.9026 11.0464 11.7924 11.0506L3.93005 11.3464L3.85695 9.40358C3.8505 9.23231 3.65154 9.14251 3.52538 9.25478L0.0799986 12.2515C0.0567762 12.2716 0.0383328 12.2968 0.0260663 12.3252C0.0137998 12.3536 0.00803261 12.3845 0.00920044 12.4155C0.0103683 12.4465 0.0184405 12.4769 0.0328067 12.5043C0.0471729 12.5317 0.0674555 12.5554 0.0921175 12.5736V12.5736Z" fill="#A1C2F5"/>
</svg>
