<svg width="21" height="20" viewBox="0 0 21 20" fill="none" xmlns="http://www.w3.org/2000/svg">
<path d="M1.99891 4.10209C5.06141 0.0229215 11.4052 -1.16354 15.9197 1.64375C20.3781 4.41459 22.0177 9.7448 20.1906 14.7448C18.4666 19.4667 13.9239 21.3365 10.6499 18.9615C9.42391 18.0719 8.94786 16.9563 8.7187 15.1448L8.60828 14.1167L8.56141 13.7021C8.43328 12.7292 8.23745 12.2938 7.82703 12.0646C7.26974 11.7542 6.89786 11.7469 6.16557 12.0302L5.79995 12.1823L5.61349 12.2635C4.55724 12.7219 3.85516 12.8833 2.96661 12.6969L2.75828 12.6479L2.58745 12.599C-0.317761 11.699 -0.747969 7.75834 1.99891 4.10209ZM3.02391 11.0979L3.15203 11.1365L3.29161 11.1677C3.74891 11.2583 4.13953 11.1833 4.78849 10.9156L5.41557 10.6479C6.66766 10.1344 7.48328 10.0854 8.58849 10.7C9.5437 11.2333 9.91661 12.0521 10.1062 13.4708L10.1614 13.949L10.2187 14.5031L10.2677 14.9427C10.4468 16.3604 10.7729 17.1198 11.5677 17.6969C13.9374 19.4156 17.3322 18.0188 18.7239 14.2083C20.3031 9.88334 18.9052 5.33959 15.0947 2.9698C11.2666 0.59063 5.82495 1.60938 3.24786 5.03959C1.08641 7.91771 1.35203 10.5396 3.02391 11.0979ZM14.7166 9.02084C14.6674 8.85419 14.652 8.67938 14.6714 8.5067C14.6908 8.33402 14.7446 8.16698 14.8296 8.0154C14.9145 7.86383 15.029 7.73079 15.1661 7.62413C15.3033 7.51747 15.4605 7.43935 15.6283 7.39437C15.7961 7.34938 15.9713 7.33845 16.1434 7.36221C16.3155 7.38596 16.4812 7.44393 16.6306 7.5327C16.7799 7.62147 16.91 7.73924 17.0132 7.87907C17.1163 8.01889 17.1905 8.17796 17.2312 8.34688C17.3108 8.67705 17.2582 9.02526 17.0847 9.31723C16.9112 9.60921 16.6305 9.82183 16.3025 9.90975C15.9744 9.99768 15.625 9.95395 15.3287 9.78788C15.0325 9.62182 14.8128 9.34657 14.7166 9.02084ZM15.2312 12.6542C15.1418 12.3206 15.1886 11.9651 15.3613 11.6661C15.534 11.367 15.8184 11.1488 16.152 11.0594C16.4856 10.97 16.8411 11.0168 17.1401 11.1895C17.4392 11.3622 17.6574 11.6466 17.7468 11.9802C17.7911 12.1454 17.8024 12.3177 17.78 12.4872C17.7577 12.6567 17.7022 12.8202 17.6167 12.9683C17.5312 13.1164 17.4174 13.2462 17.2817 13.3503C17.146 13.4544 16.9912 13.5308 16.826 13.575C16.6608 13.6193 16.4885 13.6305 16.319 13.6082C16.1495 13.5859 15.986 13.5304 15.8379 13.4449C15.6898 13.3594 15.56 13.2455 15.4559 13.1099C15.3518 12.9742 15.2754 12.8193 15.2312 12.6542ZM12.6562 5.89271C12.5668 5.55912 12.6136 5.20369 12.7863 4.90461C12.959 4.60552 13.2434 4.38729 13.577 4.29792C13.9106 4.20855 14.2661 4.25536 14.5651 4.42805C14.8642 4.60074 15.0824 4.88516 15.1718 5.21875C15.2161 5.38393 15.2274 5.55621 15.205 5.72575C15.1827 5.89529 15.1272 6.05877 15.0417 6.20686C14.9562 6.35495 14.8424 6.48475 14.7067 6.58884C14.571 6.69294 14.4162 6.76929 14.251 6.81355C13.9174 6.90292 13.562 6.85611 13.2629 6.68342C13.1148 6.59791 12.985 6.48408 12.8809 6.34841C12.7768 6.21274 12.7004 6.05789 12.6562 5.89271ZM12.627 15.2656C12.5778 15.099 12.5625 14.9242 12.5819 14.7515C12.6013 14.5788 12.655 14.4118 12.74 14.2602C12.8249 14.1086 12.9394 13.9756 13.0766 13.8689C13.2137 13.7623 13.3709 13.6841 13.5387 13.6392C13.7066 13.5942 13.8817 13.5832 14.0538 13.607C14.226 13.6308 14.3916 13.6887 14.541 13.7775C14.6903 13.8663 14.8204 13.984 14.9236 14.1239C15.0268 14.2637 15.1009 14.4227 15.1416 14.5917C15.2212 14.9218 15.1687 15.2701 14.9952 15.562C14.8217 15.854 14.5409 16.0666 14.2129 16.1545C13.8848 16.2425 13.5354 16.1987 13.2391 16.0327C12.9429 15.8666 12.7232 15.5914 12.627 15.2656ZM8.98432 4.88021C8.93847 4.71451 8.92589 4.54136 8.94731 4.37077C8.96873 4.20018 9.02372 4.03552 9.10911 3.88629C9.1945 3.73706 9.3086 3.60623 9.44482 3.50133C9.58104 3.39643 9.73669 3.31955 9.90278 3.27512C10.0689 3.23069 10.2421 3.21959 10.4125 3.24247C10.5829 3.26535 10.7471 3.32175 10.8956 3.40842C11.0441 3.49508 11.1739 3.6103 11.2777 3.74741C11.3814 3.88453 11.4569 4.04083 11.4999 4.2073C11.5858 4.53978 11.5369 4.89274 11.3638 5.18932C11.1907 5.4859 10.9075 5.7021 10.5757 5.79083C10.244 5.87957 9.89062 5.83367 9.59257 5.66312C9.29451 5.49257 9.0759 5.21118 8.98432 4.88021Z" fill="#A1C2F5"/>
</svg>
