<svg width="24" height="24" viewBox="0 0 24 24" fill="none" xmlns="http://www.w3.org/2000/svg">
<g clip-path="url(#clip0_410_1123)">
<path d="M20.4409 11.6235C21.2996 10.9579 22.0222 10.0459 22.2034 8.97787C22.7108 8.89538 23.25 8.56013 23.25 7.5075C23.25 6.57675 22.9147 6.29887 22.6327 6.231C22.6031 2.41762 21.7028 0.79125 17.6681 0.7515C13.5983 0.711375 12.5269 2.40788 12.4882 6.27675C12.2422 6.39713 12 6.71588 12 7.5075C12 8.56013 12.5389 8.89538 13.0459 8.97787C13.2251 10.0339 13.9331 10.9358 14.7787 11.5999C13.098 11.8279 12 12.1399 12 13.0406V6.252C12 1.60275 8.95463 1.68975 8.95463 1.68975C8.95463 1.68975 8.72588 0.75 6.37575 0.75C2.736 0.75 0.75 3.12488 0.75 6.252V23.25H23.25V13.0406C23.25 12.3428 22.0564 11.871 20.4409 11.6235ZM3.46875 18.7946L3.567 18.8021L3.61912 18.7721C3.63375 18.7642 4.9455 17.9914 4.9935 16.3868C6.45525 17.7593 9.96863 18.0742 10.8139 18.1305V18.6101L10.8383 18.7969H11.0254C11.193 18.7969 11.4742 18.8445 11.4742 19.1632C11.4742 19.4651 11.3573 19.6058 11.1056 19.6058C11.067 19.6058 11.04 19.6012 11.0359 19.6005L10.8135 19.5581V19.7846C10.8135 20.9959 8.94487 21.9356 7.33725 21.9356C5.64337 21.9356 3.7125 20.79 3.7125 19.7846L3.711 19.5626L3.492 19.6009C3.48638 19.6016 3.45863 19.6061 3.41925 19.6061C3.16313 19.6061 3.04387 19.4655 3.04387 19.1636C3.04425 18.9184 3.18675 18.7946 3.46875 18.7946ZM3.35663 17.31V16.866C3.35663 15.3814 4.92412 14.1866 7.25925 14.1866C9.67463 14.1866 11.1626 15.3814 11.1626 16.866V17.31C11.1626 15.8246 9.67463 14.6302 7.25925 14.6302C4.92412 14.6302 3.35663 15.8246 3.35663 17.31ZM4.782 21.6101C5.51437 22.0305 6.43762 22.3102 7.33762 22.3102C8.223 22.3102 9.15788 22.053 9.88613 21.6232C10.7265 21.8944 11.3659 22.3125 11.5624 22.875H3.06262C3.26175 22.3031 3.92025 21.8813 4.782 21.6101ZM11.8061 20.3561C11.7409 20.1686 11.6629 19.9886 11.5744 19.8251C11.6786 19.743 11.7596 19.6208 11.8061 19.4587V20.3561ZM2.0595 6.45487C4.10063 6.432 7.14675 4.1985 7.911 3.61313C8.271 4.236 9.45825 6.14213 10.6676 6.45187C10.6725 6.45262 11.1649 6.55312 11.1649 7.41525C11.1649 8.47988 10.4678 8.67638 10.4396 8.68425L10.2975 8.71912L10.2968 8.86538C10.2863 10.6646 7.80787 12.4234 6.37537 12.4234C4.95825 12.4234 2.42175 10.6305 2.42175 8.8665L2.41988 8.72325L2.28225 8.685C2.25412 8.67712 1.5855 8.48025 1.5855 7.41525C1.5855 6.68325 1.97137 6.48937 2.0595 6.45487ZM1.13137 22.875V13.0406C1.13137 12.6079 2.24513 12.1545 4.05638 11.9333C4.83375 12.4657 5.69738 12.7984 6.37575 12.7984C7.0545 12.7984 7.92337 12.4579 8.70225 11.913C10.6189 12.1252 11.8065 12.594 11.8065 13.041V18.9105C11.7694 18.7938 11.6992 18.6905 11.6044 18.6131V17.1893C11.6044 15.1451 9.94837 13.5 7.25962 13.5C4.66012 13.5 2.91637 15.1451 2.91637 17.1893V18.594C2.76938 18.7114 2.67 18.8944 2.67 19.1632C2.67 19.536 2.8185 19.7572 3.018 19.8743C2.64938 20.5819 2.45288 21.555 2.82975 22.218C2.84812 22.251 2.88525 22.2926 2.93437 22.3372C2.81362 22.5023 2.72888 22.6822 2.67825 22.875H1.13137ZM13.3845 8.78475L13.3661 8.63287L13.2176 8.62125C12.6341 8.57662 12.3626 8.22263 12.3626 7.5075C12.3626 6.89513 12.5051 6.58538 12.786 6.58538C12.8029 6.58538 12.8198 6.58612 12.8374 6.58762C12.8741 6.81037 12.918 6.97163 12.9713 7.07925C13.1018 7.341 13.3489 7.48425 13.377 7.5L13.6909 7.67512L13.6429 7.3095C13.6055 6.96848 13.5934 6.62518 13.6065 6.28238C13.7257 4.39875 13.8405 4.14713 14.232 4.14713C14.4113 4.14713 14.6572 4.19925 14.9692 4.2645C15.5794 4.39237 16.4145 4.56787 17.6246 4.56787C18.8348 4.56787 19.6699 4.39237 20.2796 4.2645C20.5916 4.19887 20.838 4.14713 21.0173 4.14713C21.4088 4.14713 21.5231 4.39912 21.6424 6.28162C21.663 6.87413 21.6064 7.305 21.6056 7.30912L21.5565 7.67625L21.8719 7.49963C21.8996 7.48425 22.1456 7.341 22.2772 7.07888C22.3301 6.97275 22.374 6.81112 22.4111 6.58762C22.7302 6.55312 22.8866 6.85913 22.8866 7.5075C22.8866 8.22225 22.6147 8.57662 22.0309 8.62125L21.8824 8.63287L21.864 8.78475C21.5933 11.0111 18.7515 12.4234 17.6243 12.4234C16.4974 12.4234 13.6553 11.0111 13.3845 8.78475ZM12.9949 19.3073C12.6626 19.3073 12.5737 19.0106 12.5737 18.8348C12.5737 18.6596 12.6626 18.363 12.9949 18.363H13.1655L13.3346 16.4966C13.3346 16.2638 13.4078 16.1449 13.8094 16.1449C14.0775 16.1449 14.4285 16.2034 14.8354 16.2709C15.3911 16.3631 16.0215 16.4678 16.6875 16.4678C17.3535 16.4678 17.9839 16.3631 18.54 16.2709C18.9469 16.2034 19.2983 16.1449 19.5671 16.1449C19.9684 16.1449 20.0422 16.2634 20.0426 16.5131L20.2095 18.3626H20.3805C20.7127 18.3626 20.8016 18.6593 20.8016 18.8344C20.8016 19.0103 20.7127 19.3069 20.3805 19.3069H20.193V19.4944C20.193 20.9843 18.1166 21.9349 16.6871 21.9349C15.2576 21.9349 13.1813 20.9843 13.1813 19.4944V19.3069H12.9949V19.3073ZM16.6879 22.3102C17.4761 22.3102 18.4148 22.0567 19.1715 21.5963C20.0561 21.8659 20.7349 22.2926 20.9374 22.875H12.4376C12.6401 22.2926 13.3166 21.8651 14.202 21.594C14.9599 22.056 15.8989 22.3102 16.6879 22.3102ZM22.8686 22.875H21.3229C21.1425 22.1779 20.4645 21.6637 19.5495 21.3326C20.1041 20.8991 20.5031 20.3366 20.5605 19.6642C20.9655 19.5784 21.1766 19.2049 21.1766 18.8351C21.1766 18.5325 21.0319 18.2295 20.7581 18.0821C20.7645 18.0124 20.7675 17.9393 20.7675 17.8609V16.6781C20.7675 14.9182 19.1299 13.5 16.6879 13.5C14.1641 13.5 12.6097 14.9179 12.6097 16.6781V17.8609C12.6097 17.9393 12.6142 18.0116 12.6206 18.0806C12.3446 18.2272 12.1995 18.531 12.1995 18.8351C12.1995 19.2049 12.4102 19.5784 12.8153 19.6642C12.8726 20.3366 13.272 20.8999 13.8278 21.3334C13.0718 21.6068 12.4811 22.0058 12.1939 22.5281V13.1257C12.1939 12.5711 13.3504 12.1346 15.2231 11.9209C16.0718 12.4774 16.9867 12.7984 17.625 12.7984C18.2569 12.7984 19.1591 12.4849 19.9999 11.9392C21.7792 12.1627 22.8686 12.6124 22.8686 13.041V22.875Z" fill="black"/>
<path d="M15.5625 8.45996C16.0285 8.45996 16.4062 8.0822 16.4062 7.61621C16.4062 7.15022 16.0285 6.77246 15.5625 6.77246C15.0965 6.77246 14.7188 7.15022 14.7188 7.61621C14.7188 8.0822 15.0965 8.45996 15.5625 8.45996Z" fill="black"/>
<path d="M19.6875 8.45996C20.1535 8.45996 20.5312 8.0822 20.5312 7.61621C20.5312 7.15022 20.1535 6.77246 19.6875 6.77246C19.2215 6.77246 18.8438 7.15022 18.8438 7.61621C18.8438 8.0822 19.2215 8.45996 19.6875 8.45996Z" fill="black"/>
<path d="M19.1002 10.371C19.1707 10.2412 19.0765 10.1013 18.9727 10.182C18.1042 10.8573 17.14 10.8528 16.2768 10.182C16.1729 10.1013 16.0792 10.2412 16.1493 10.371C16.4129 10.8528 16.9447 11.2837 17.6245 11.2837C18.3048 11.2837 18.8362 10.8528 19.1002 10.371Z" fill="black"/>
<path d="M4.3623 8.45898C4.82829 8.45898 5.20605 8.08122 5.20605 7.61523C5.20605 7.14924 4.82829 6.77148 4.3623 6.77148C3.89631 6.77148 3.51855 7.14924 3.51855 7.61523C3.51855 8.08122 3.89631 8.45898 4.3623 8.45898Z" fill="black"/>
<path d="M8.38818 8.45898C8.85417 8.45898 9.23193 8.08122 9.23193 7.61523C9.23193 7.14924 8.85417 6.77148 8.38818 6.77148C7.92219 6.77148 7.54443 7.14924 7.54443 7.61523C7.54443 8.08122 7.92219 8.45898 8.38818 8.45898Z" fill="black"/>
<path d="M4.89971 10.371C5.16371 10.8528 5.69546 11.2837 6.37496 11.2837C7.05521 11.2837 7.58696 10.8532 7.85096 10.371C7.92146 10.2412 7.82733 10.1013 7.72346 10.182C6.85496 10.8573 5.89083 10.8528 5.02758 10.182C4.92258 10.1017 4.82883 10.2416 4.89971 10.371Z" fill="black"/>
<path d="M14.8979 19.3301C15.2604 19.3301 15.5542 19.0363 15.5542 18.6738C15.5542 18.3114 15.2604 18.0176 14.8979 18.0176C14.5355 18.0176 14.2417 18.3114 14.2417 18.6738C14.2417 19.0363 14.5355 19.3301 14.8979 19.3301Z" fill="black"/>
<path d="M18.4775 19.3301C18.84 19.3301 19.1338 19.0363 19.1338 18.6738C19.1338 18.3114 18.84 18.0176 18.4775 18.0176C18.1151 18.0176 17.8213 18.3114 17.8213 18.6738C17.8213 19.0363 18.1151 19.3301 18.4775 19.3301Z" fill="black"/>
<path d="M15.3996 20.5446C15.6299 20.9451 16.0938 21.304 16.6878 21.304C17.2818 21.304 17.7453 20.9451 17.9763 20.5446C18.0374 20.4363 17.9556 20.3196 17.8649 20.3871C17.1108 20.9451 16.2693 20.9489 15.5118 20.3871C15.4199 20.32 15.3385 20.4363 15.3996 20.5446Z" fill="black"/>
<path d="M9.02344 19.3301C9.38587 19.3301 9.67969 19.0363 9.67969 18.6738C9.67969 18.3114 9.38587 18.0176 9.02344 18.0176C8.661 18.0176 8.36719 18.3114 8.36719 18.6738C8.36719 19.0363 8.661 19.3301 9.02344 19.3301Z" fill="black"/>
<path d="M5.59326 19.3301C5.9557 19.3301 6.24951 19.0363 6.24951 18.6738C6.24951 18.3114 5.9557 18.0176 5.59326 18.0176C5.23082 18.0176 4.93701 18.3114 4.93701 18.6738C4.93701 19.0363 5.23082 19.3301 5.59326 19.3301Z" fill="black"/>
<path d="M6.0184 20.5435C6.24903 20.9455 6.71365 21.3037 7.3084 21.3037C7.90428 21.3037 8.36778 20.9455 8.5984 20.5435C8.6599 20.4367 8.57778 20.32 8.48703 20.3868C7.72765 20.9493 6.8854 20.9455 6.1294 20.3868C6.03903 20.3204 5.9569 20.4367 6.0184 20.5435Z" fill="black"/>
</g>
<defs>
<clipPath id="clip0_410_1123">
<rect width="24" height="24" fill="white"/>
</clipPath>
</defs>
</svg>
