<svg width="25" height="25" viewBox="0 0 25 25" fill="none" xmlns="http://www.w3.org/2000/svg">
<path d="M4 9.25C3.20435 9.25 2.44129 9.56607 1.87868 10.1287C1.31607 10.6913 1 11.4544 1 12.25V15.25C1 16.0456 1.31607 16.8087 1.87868 17.3713C2.44129 17.9339 3.20435 18.25 4 18.25H4.75C4.94891 18.25 5.13968 18.171 5.28033 18.0303C5.42098 17.8897 5.5 17.6989 5.5 17.5V10C5.5 9.80109 5.42098 9.61032 5.28033 9.46967C5.13968 9.32902 4.94891 9.25 4.75 9.25H4ZM4 9.25C4 7.06196 4.86919 4.96354 6.41637 3.41637C7.96354 1.86919 10.062 1 12.25 1C14.438 1 16.5365 1.86919 18.0836 3.41637C19.6308 4.96354 20.5 7.06196 20.5 9.25M20.5 18.25H19.75C19.5511 18.25 19.3603 18.171 19.2197 18.0303C19.079 17.8897 19 17.6989 19 17.5V10C19 9.80109 19.079 9.61032 19.2197 9.46967C19.3603 9.32902 19.5511 9.25 19.75 9.25H20.5M20.5 18.25C21.2956 18.25 22.0587 17.9339 22.6213 17.3713C23.1839 16.8087 23.5 16.0456 23.5 15.25V12.25C23.5 11.4544 23.1839 10.6913 22.6213 10.1287C22.0587 9.56607 21.2956 9.25 20.5 9.25M20.5 18.25V19C20.5 19.7956 20.1839 20.5587 19.6213 21.1213C19.0587 21.6839 18.2956 22 17.5 22H15.25M15.25 22C15.25 21.6022 15.092 21.2206 14.8107 20.9393C14.5294 20.658 14.1478 20.5 13.75 20.5H12.25C11.8522 20.5 11.4706 20.658 11.1893 20.9393C10.908 21.2206 10.75 21.6022 10.75 22C10.75 22.3978 10.908 22.7794 11.1893 23.0607C11.4706 23.342 11.8522 23.5 12.25 23.5H13.75C14.1478 23.5 14.5294 23.342 14.8107 23.0607C15.092 22.7794 15.25 22.3978 15.25 22Z" stroke="#A1C2F5" stroke-width="1.5" stroke-linecap="round" stroke-linejoin="round"/>
</svg>
