<svg width="10" height="17" viewBox="0 0 10 17" fill="none" xmlns="http://www.w3.org/2000/svg">
<path d="M0.846053 16.2889C0.610218 16.056 0.47654 15.739 0.474417 15.4075C0.472294 15.0761 0.601899 14.7573 0.834732 14.5214L6.98247 8.29444L0.755465 2.1467C0.526262 1.91241 0.398248 1.59747 0.398997 1.26971C0.399745 0.941952 0.529196 0.627601 0.759467 0.394361C0.989738 0.161121 1.3024 0.0276556 1.63013 0.0227083C1.95785 0.017761 2.2744 0.141729 2.51161 0.367912L9.62801 7.39372C9.86384 7.62663 9.99752 7.94366 9.99964 8.27511C10.0018 8.60656 9.87216 8.92528 9.63933 9.16119L2.61352 16.2776C2.38061 16.5134 2.06358 16.6471 1.73213 16.6492C1.40068 16.6513 1.08196 16.5217 0.846053 16.2889V16.2889Z" fill="white"/>
</svg>
