<svg width="10" height="18" viewBox="0 0 10 18" fill="none" xmlns="http://www.w3.org/2000/svg">
<path d="M9.63402 1.045C9.86836 1.27941 10 1.59729 10 1.92875C10 2.2602 9.86836 2.57809 9.63402 2.8125L3.44652 9L9.63402 15.1875C9.86171 15.4233 9.98771 15.739 9.98486 16.0668C9.98201 16.3945 9.85055 16.708 9.61879 16.9398C9.38703 17.1715 9.07351 17.303 8.74577 17.3058C8.41802 17.3087 8.10227 17.1827 7.86652 16.955L0.795268 9.88375C0.560929 9.64934 0.429284 9.33145 0.429284 9C0.429284 8.66854 0.560929 8.35066 0.795268 8.11625L7.86652 1.045C8.10093 0.81066 8.41881 0.679016 8.75027 0.679016C9.08172 0.679016 9.39961 0.81066 9.63402 1.045V1.045Z" fill="white"/>
</svg>
