<svg width="25" height="25" viewBox="0 0 25 25" fill="none" xmlns="http://www.w3.org/2000/svg">
<path d="M14.5 16.75H13.75C13.3522 16.75 12.9706 16.592 12.6893 16.3107C12.408 16.0294 12.25 15.6478 12.25 15.25V11.5C12.25 11.3011 12.171 11.1103 12.0303 10.9697C11.8897 10.829 11.6989 10.75 11.5 10.75H10.75" stroke="#A1C2F5" stroke-width="1.5" stroke-linecap="round" stroke-linejoin="round"/>
<path d="M11.875 7C11.8008 7 11.7283 7.02199 11.6667 7.0632C11.605 7.1044 11.5569 7.16297 11.5285 7.23149C11.5002 7.30002 11.4927 7.37542 11.5072 7.44816C11.5217 7.5209 11.5574 7.58772 11.6098 7.64016C11.6623 7.69261 11.7291 7.72833 11.8018 7.74279C11.8746 7.75726 11.95 7.74984 12.0185 7.72145C12.087 7.69307 12.1456 7.64501 12.1868 7.58334C12.228 7.52167 12.25 7.44917 12.25 7.375C12.25 7.27554 12.2105 7.18016 12.1402 7.10984C12.0698 7.03951 11.9745 7 11.875 7Z" stroke="#A1C2F5" stroke-width="1.5" stroke-linecap="round" stroke-linejoin="round"/>
<path d="M1 12.25C1 15.2337 2.18526 18.0952 4.29505 20.205C6.40483 22.3147 9.26631 23.5 12.25 23.5C15.2337 23.5 18.0952 22.3147 20.205 20.205C22.3147 18.0952 23.5 15.2337 23.5 12.25C23.5 9.26631 22.3147 6.40483 20.205 4.29505C18.0952 2.18526 15.2337 1 12.25 1C9.26631 1 6.40483 2.18526 4.29505 4.29505C2.18526 6.40483 1 9.26631 1 12.25V12.25Z" stroke="#A1C2F5" stroke-width="1.5" stroke-linecap="round" stroke-linejoin="round"/>
</svg>
