<svg width="20" height="23" viewBox="0 0 20 23" fill="none" xmlns="http://www.w3.org/2000/svg">
<path fill-rule="evenodd" clip-rule="evenodd" d="M0.3125 8.08333C0.3125 3.61903 3.93153 0 8.39583 0L11.6042 0C16.0685 0 19.6875 3.61903 19.6875 8.08333V14.0417C19.6875 18.506 16.0685 22.125 11.6042 22.125H8.39583C3.93153 22.125 0.3125 18.506 0.3125 14.0417L0.3125 8.08333ZM8.39583 1.5C4.75996 1.5 1.8125 4.44746 1.8125 8.08333V14.0417C1.8125 17.6775 4.75996 20.625 8.39583 20.625H11.6042C15.24 20.625 18.1875 17.6775 18.1875 14.0417V8.08333C18.1875 4.44746 15.24 1.5 11.6042 1.5H8.39583ZM8.27123 4.21496C8.81932 3.98793 9.40675 3.87108 10 3.87108C10.5932 3.87108 11.1807 3.98793 11.7288 4.21496C12.2769 4.44198 12.7749 4.77474 13.1944 5.19423C13.6138 5.61372 13.9466 6.11172 14.1736 6.65981C14.4007 7.2079 14.5175 7.79534 14.5175 8.38858C14.5175 8.98183 14.4007 9.56927 14.1736 10.1174C13.9466 10.6654 13.6138 11.1634 13.1944 11.5829C12.7749 12.0024 12.2769 12.3352 11.7288 12.5622C11.1807 12.7892 10.5932 12.9061 10 12.9061C9.40675 12.9061 8.81932 12.7892 8.27123 12.5622C7.72314 12.3352 7.22513 12.0024 6.80564 11.5829C6.38616 11.1634 6.0534 10.6654 5.82637 10.1174C5.59935 9.56927 5.4825 8.98183 5.4825 8.38858C5.4825 7.79534 5.59935 7.2079 5.82637 6.65981C6.0534 6.11172 6.38616 5.61372 6.80564 5.19423C7.22513 4.77474 7.72314 4.44198 8.27123 4.21496ZM10 5.37108C9.60374 5.37108 9.21135 5.44913 8.84525 5.60078C8.47915 5.75242 8.14651 5.97469 7.86631 6.25489C7.5861 6.53509 7.36384 6.86774 7.21219 7.23384C7.06055 7.59994 6.9825 7.99232 6.9825 8.38858C6.9825 8.78485 7.06055 9.17723 7.21219 9.54333C7.36384 9.90943 7.5861 10.2421 7.86631 10.5223C8.14651 10.8025 8.47915 11.0247 8.84525 11.1764C9.21135 11.328 9.60373 11.4061 10 11.4061C10.3963 11.4061 10.7886 11.328 11.1547 11.1764C11.5208 11.0247 11.8535 10.8025 12.1337 10.5223C12.4139 10.2421 12.6362 9.90943 12.7878 9.54333C12.9395 9.17723 13.0175 8.78485 13.0175 8.38858C13.0175 7.99232 12.9395 7.59994 12.7878 7.23384C12.6362 6.86774 12.4139 6.53509 12.1337 6.25489C11.8535 5.97469 11.5208 5.75242 11.1547 5.60078C10.7886 5.44913 10.3963 5.37108 10 5.37108ZM5.99928 14.1341C7.20661 13.4056 8.58993 13.0206 10 13.0206C11.4101 13.0206 12.7934 13.4056 14.0007 14.1341C15.2081 14.8625 16.1936 15.9068 16.851 17.1542C17.0441 17.5207 16.9036 17.9743 16.5372 18.1674C16.1707 18.3605 15.7171 18.22 15.524 17.8536C14.9939 16.8478 14.1993 16.0058 13.2258 15.4184C12.2523 14.831 11.137 14.5206 10 14.5206C8.86305 14.5206 7.74767 14.831 6.77419 15.4184C5.80071 16.0058 5.00608 16.8478 4.476 17.8536C4.28288 18.22 3.82927 18.3605 3.46283 18.1674C3.09639 17.9743 2.95588 17.5207 3.149 17.1542C3.80641 15.9068 4.79194 14.8625 5.99928 14.1341Z" fill="#A1C2F5"/>
</svg>
