<svg width="26" height="24" viewBox="0 0 26 24" fill="none" xmlns="http://www.w3.org/2000/svg">
<path d="M12.9933 3.19919L12.9936 3.19938L18.7535 7.22931C18.7535 7.22933 18.7536 7.22936 18.7536 7.22938C19.2228 7.55784 19.6671 8.09641 19.9945 8.72359C20.3219 9.3508 20.5102 10.024 20.5102 10.5997V17.3797C20.5102 19.6536 18.6641 21.4997 16.3902 21.4997H5.61023C3.33778 21.4997 1.49023 19.645 1.49023 17.3697V10.4697C1.49023 9.93526 1.66062 9.29618 1.95881 8.69056C2.25686 8.08521 2.6613 7.55657 3.08775 7.22394L3.08786 7.22386L8.09648 3.31493C8.0967 3.31476 8.09693 3.31458 8.09716 3.31441C9.434 2.27913 11.6031 2.22511 12.9933 3.19919Z" stroke="black"/>
<path d="M11 18.25C10.8661 18.25 10.75 18.1339 10.75 18V15C10.75 14.8661 10.8661 14.75 11 14.75C11.1339 14.75 11.25 14.8661 11.25 15V18C11.25 18.1339 11.1339 18.25 11 18.25Z" stroke="black"/>
</svg>
