<svg width="30" height="30" viewBox="0 0 30 30" fill="none" xmlns="http://www.w3.org/2000/svg">
    <defs>
        <linearGradient id="paint0_linear_1171_1255" x1="32.25" y1="24.4785" x2="-3" y2="24.4785" gradientUnits="userSpaceOnUse">
            <stop stop-color="#6BD5BF"/>
            <stop offset="0.159669" stop-color="#32D172"/>
            <stop offset="0.268196" stop-color="#8ACD41"/>
            <stop offset="0.658066" stop-color="#F3AF3D"/>
            <stop offset="0.804268" stop-color="#FF7A00"/>
            <stop offset="1" stop-color="#FF2E00"/>
        </linearGradient>
        <linearGradient id="paint1_linear_1171_1255" x1="17.9402" y1="14.8528" x2="11.3625" y2="14.8528" gradientUnits="userSpaceOnUse">
            <stop stop-color="#52D060"/>
            <stop offset="0.395833" stop-color="#EDB13E"/>
            <stop offset="1" stop-color="#FF7501"/>
        </linearGradient>
        <linearGradient id="paint2_linear_1171_1255" x1="17.9402" y1="14.8528" x2="11.3625" y2="14.8528" gradientUnits="userSpaceOnUse">
            <stop stop-color="#52D060"/>
            <stop offset="0.395833" stop-color="#EDB13E"/>
            <stop offset="1" stop-color="#FF7501"/>
        </linearGradient>
    </defs>
    <path d="M3.13595 21.4416C2.40792 21.8369 1.48966 21.5694 1.16902 20.8055C0.358602 18.8748 -0.0407973 16.7903 0.0032904 14.6858C0.0578805 12.08 0.790532 9.53333 2.12904 7.29686C3.46755 5.06038 5.36571 3.21128 7.63646 1.93178C9.90721 0.652285 12.4722 -0.013444 15.0786 0.000205695C17.6849 0.0138554 20.2428 0.706413 22.5 2.00962C24.7572 3.31283 26.6359 5.18172 27.9509 7.43209C29.2659 9.68246 29.9719 12.2366 29.9992 14.8429C30.0212 16.9478 29.6 19.028 28.7694 20.9501C28.4408 21.7105 27.5198 21.9684 26.7959 21.5655C26.0721 21.1626 25.8216 20.2517 26.1311 19.4832C26.719 18.0235 27.0159 16.4577 26.9993 14.8743C26.9775 12.7893 26.4128 10.746 25.3607 8.94567C24.3087 7.14537 22.8058 5.65027 21 4.6077C19.1942 3.56513 17.148 3.01108 15.0628 3.00016C12.9777 2.98924 10.9258 3.52183 9.10917 4.54543C7.29257 5.56902 5.77404 7.04831 4.70323 8.83749C3.63243 10.6267 3.0463 12.664 3.00263 14.7487C2.96947 16.3317 3.24998 17.9006 3.82258 19.3664C4.12401 20.138 3.86399 21.0463 3.13595 21.4416Z" fill="#E4E4E4"/>
    <path d="M3.13595 21.4416C2.40792 21.8369 1.48963 21.5694 1.16898 20.8055C-0.164636 17.6286 -0.369503 14.0725 0.617714 10.7397C1.74761 6.92532 4.34649 3.71597 7.84265 1.81773C11.3388 -0.0805202 15.4458 -0.512178 19.2603 0.617713C22.593 1.60493 25.4639 3.71357 27.4019 6.5623C27.8679 7.24725 27.5921 8.16309 26.864 8.55838C26.136 8.95367 25.2326 8.67701 24.7497 8.00393C23.2038 5.84953 20.9776 4.25526 18.4082 3.49417C15.3567 2.59026 12.071 2.93558 9.27412 4.45418C6.47719 5.97278 4.39808 8.54025 3.49417 11.5918C2.73308 14.1612 2.85765 16.8965 3.82253 19.3664C4.12398 20.138 3.86399 21.0463 3.13595 21.4416Z" fill="url(#paint0_linear_1171_1255)"/>
    <path d="M9.9542 16.2964C9.65402 16.5805 9.65402 17.0465 9.9542 17.3306C10.2459 17.6066 10.7119 17.6066 11.0036 17.3306L11.0038 17.3304L13.3572 15.0991L14.7503 16.4174C15.0419 16.6934 15.5078 16.6935 15.7995 16.4176C15.7995 16.4176 15.7995 16.4175 15.7996 16.4175C15.7996 16.4175 15.7996 16.4174 15.7997 16.4174L18.297 14.0584L18.8023 14.5365C18.9628 14.6885 19.1791 14.7055 19.3463 14.6406C19.5145 14.5753 19.6675 14.412 19.6675 14.1807V12.2314C19.6753 11.9337 19.4267 11.7291 19.1613 11.7291H17.1017C16.8828 11.7291 16.7072 11.8571 16.6306 12.031C16.5535 12.2057 16.5781 12.4272 16.7427 12.583L17.2261 13.0404L15.2774 14.8844L13.8841 13.566C13.5924 13.2899 13.1264 13.2899 12.8347 13.566L12.8346 13.5661L9.9542 16.2964ZM9.9542 16.2964L10.1404 16.4932M9.9542 16.2964L9.95404 16.2966L10.1404 16.4932M10.1404 16.4932C9.95319 16.6704 9.95319 16.9566 10.1404 17.1338C10.3277 17.311 10.6301 17.311 10.8174 17.1338L13.357 14.7259M10.1404 16.4932L13.357 14.7259M13.357 14.7259L14.9365 16.2206C15.1238 16.3978 15.4262 16.3978 15.6135 16.2206L13.357 14.7259Z" fill="url(#paint1_linear_1171_1255)" stroke="url(#paint2_linear_1171_1255)" stroke-width="0.54187"/>
</svg>