<svg width="25" height="25" viewBox="0 0 25 25" fill="none" xmlns="http://www.w3.org/2000/svg">
    <g clip-path="url(#clip0_410_3088)">
        <path d="M12.5002 4.66699C11.7132 4.66699 10.9438 4.90037 10.2895 5.3376C9.63509 5.77484 9.12507 6.3963 8.82389 7.1234C8.52272 7.8505 8.44392 8.65057 8.59746 9.42246C8.75099 10.1943 9.12997 10.9034 9.68647 11.4599C10.243 12.0164 10.952 12.3953 11.7239 12.5489C12.4958 12.7024 13.2958 12.6236 14.0229 12.3224C14.75 12.0213 15.3715 11.5112 15.8087 10.8569C16.246 10.2025 16.4793 9.43316 16.4793 8.64616C16.4793 7.59082 16.0601 6.5787 15.3139 5.83246C14.5676 5.08622 13.5555 4.66699 12.5002 4.66699ZM12.5002 11.2364C11.9879 11.2364 11.4871 11.0845 11.0611 10.7999C10.6351 10.5153 10.3031 10.1107 10.1071 9.63741C9.91101 9.1641 9.85971 8.64329 9.95966 8.14082C10.0596 7.63836 10.3063 7.17681 10.6686 6.81456C11.0308 6.4523 11.4924 6.2056 11.9948 6.10565C12.4973 6.00571 13.0181 6.057 13.4914 6.25305C13.9647 6.44911 14.3693 6.78111 14.6539 7.20708C14.9385 7.63305 15.0904 8.13385 15.0904 8.64616C15.0886 9.33194 14.8149 9.989 14.3293 10.4733C13.8437 10.9575 13.1859 11.2295 12.5002 11.2295V11.2364Z" fill="#A1C2F5"/>
        <path d="M12.4999 1.38867C10.3368 1.39048 8.26238 2.24818 6.72962 3.77443C5.19686 5.30069 4.33034 7.37147 4.31934 9.5345C4.31934 12.7776 6.13878 15.4928 7.47211 17.472L7.71517 17.8331C9.04175 19.7558 10.4649 21.61 11.9791 23.3887L12.5068 24.0067L13.0346 23.3887C14.5486 21.6098 15.9717 19.7556 17.2985 17.8331L17.5416 17.4651C18.8679 15.4859 20.6874 12.7776 20.6874 9.5345C20.6764 7.37027 19.8089 5.29844 18.2746 3.77199C16.7404 2.24553 14.6642 1.38864 12.4999 1.38867ZM16.3818 16.6664L16.1318 17.0345C14.9374 18.8262 13.3541 20.8331 12.4999 21.8262C11.6804 20.8331 10.0624 18.8262 8.86795 17.0345L8.62489 16.6664C7.39573 14.8331 5.70823 12.3262 5.70823 9.50673C5.70823 8.61483 5.8839 7.73167 6.22521 6.90767C6.56652 6.08367 7.06679 5.33496 7.69746 4.70429C8.32812 4.07363 9.07683 3.57336 9.90083 3.23205C10.7248 2.89073 11.608 2.71506 12.4999 2.71506C13.3918 2.71506 14.2749 2.89073 15.099 3.23205C15.923 3.57336 16.6717 4.07363 17.3023 4.70429C17.933 5.33496 18.4333 6.08367 18.7746 6.90767C19.1159 7.73167 19.2916 8.61483 19.2916 9.50673C19.2916 12.3539 17.611 14.8609 16.3818 16.6664Z" fill="#A1C2F5"/>
    </g>
    <defs>
        <clipPath id="clip0_410_3088">
            <rect width="25" height="25" fill="white"/>
        </clipPath>
    </defs>
</svg>