<svg width="22" height="14" viewBox="0 0 22 14" fill="none" xmlns="http://www.w3.org/2000/svg">
    <path d="M14.116 6.84787C14.1163 7.67231 13.7813 8.46308 13.1847 9.04622C12.5882 9.62936 11.779 9.9571 10.9351 9.95735C10.0912 9.9576 9.28184 9.63033 8.68496 9.04755C8.08808 8.46476 7.75262 7.67419 7.75238 6.84975C7.75214 6.02531 8.08713 5.23455 8.68367 4.65141C9.2802 4.06827 10.0894 3.74052 10.9333 3.74027C11.7772 3.74002 12.5866 4.06729 13.1834 4.65008C13.7803 5.23287 14.1158 6.02344 14.116 6.84787Z" fill="black" fill-opacity="0.5"/>
    <path d="M0.752505 6.85148C0.752505 6.85148 4.56867 0.0115691 10.9323 0.00969216C17.2959 0.00781519 21.1161 6.84548 21.1161 6.84548C21.1161 6.84548 17.3 13.6854 10.9363 13.6873C4.5727 13.6891 0.752505 6.85148 0.752505 6.85148ZM10.9356 11.2004C12.117 11.2001 13.2499 10.7412 14.0851 9.92485C14.9202 9.10845 15.3892 8.00138 15.3889 6.84717C15.3885 5.69296 14.9189 4.58616 14.0833 3.77025C13.2476 2.95435 12.1145 2.49618 10.933 2.49652C9.75162 2.49687 8.61872 2.95572 7.78358 3.77211C6.94843 4.58851 6.47944 5.69558 6.47978 6.84979C6.48012 8.004 6.94976 9.1108 7.78539 9.92671C8.62102 10.7426 9.75419 11.2008 10.9356 11.2004Z" fill="black" fill-opacity="0.5"/>
</svg>