<svg width="22" height="22" viewBox="0 0 22 22" fill="none" xmlns="http://www.w3.org/2000/svg">
    <path d="M12.8332 16.4997C11.2061 16.4993 9.62593 15.9547 8.34425 14.9523L4.31459 18.982L3.01842 17.6858L7.04809 13.6562C6.04525 12.3744 5.50023 10.7938 5.49984 9.16634C5.49984 5.12292 8.78975 1.83301 12.8332 1.83301C16.8766 1.83301 20.1665 5.12292 20.1665 9.16634C20.1665 13.2098 16.8766 16.4997 12.8332 16.4997ZM12.8332 3.66634C9.79992 3.66634 7.33317 6.13309 7.33317 9.16634C7.33317 12.1996 9.79992 14.6663 12.8332 14.6663C15.8664 14.6663 18.3332 12.1996 18.3332 9.16634C18.3332 6.13309 15.8664 3.66634 12.8332 3.66634Z" fill="black" fill-opacity="0.5"/>
    <path d="M11.539 7.87082C11.1916 8.21916 11 8.67932 11 9.16699H9.16666C9.16585 8.68522 9.26054 8.20806 9.44526 7.7631C9.62997 7.31814 9.90105 6.91421 10.2428 6.57466C11.6307 5.18866 14.0369 5.18866 15.4238 6.57466L14.1295 7.87266C13.4328 7.17782 12.232 7.17966 11.539 7.87082Z" fill="black" fill-opacity="0.5"/>
</svg>