<svg width="29" height="29" viewBox="0 0 29 29" fill="none" xmlns="http://www.w3.org/2000/svg">
    <defs>
        <linearGradient id="paint0_linear_1171_1251" x1="14.4998" y1="3.625" x2="14.4998" y2="25.375" gradientUnits="userSpaceOnUse">
            <stop stop-color="#967CFD"/>
            <stop offset="1" stop-color="#3177FF"/>
        </linearGradient>
        <clipPath id="clip0_1171_1251">
            <rect width="29" height="29" fill="white"/>
        </clipPath>
    </defs>
    <g clip-path="url(#clip0_1171_1251)">
        <path d="M7.854 25.375H3.62484C2.96025 25.375 2.4165 24.8313 2.4165 24.1667V12.0833C2.4165 11.4188 2.96025 10.875 3.62484 10.875H7.854C8.51859 10.875 9.06234 11.4188 9.06234 12.0833V24.1667C9.06234 24.8313 8.51859 25.375 7.854 25.375ZM16.6144 3.625H12.3853C11.7207 3.625 11.1769 4.16875 11.1769 4.83333V24.1667C11.1769 24.8313 11.7207 25.375 12.3853 25.375H16.6144C17.279 25.375 17.8228 24.8313 17.8228 24.1667V4.83333C17.8228 4.16875 17.279 3.625 16.6144 3.625ZM25.3748 13.2917H21.1457C20.4811 13.2917 19.9373 13.8354 19.9373 14.5V24.1667C19.9373 24.8313 20.4811 25.375 21.1457 25.375H25.3748C26.0394 25.375 26.5832 24.8313 26.5832 24.1667V14.5C26.5832 13.8354 26.0394 13.2917 25.3748 13.2917Z" fill="url(#paint0_linear_1171_1251)"/>
    </g>
</svg>