<svg width="29" height="30" viewBox="0 0 29 30" fill="none" xmlns="http://www.w3.org/2000/svg">
    <defs>
        <linearGradient id="paint0_linear_1171_1238" x1="24.505" y1="16.25" x2="4.205" y2="16.25" gradientUnits="userSpaceOnUse">
            <stop stop-color="#2FEA9B"/>
            <stop offset="1" stop-color="#7FDD53"/>
        </linearGradient>
        <linearGradient id="paint1_linear_1171_1238" x1="20.2172" y1="15.5" x2="8.61721" y2="15.5" gradientUnits="userSpaceOnUse">
            <stop stop-color="#2FEA9B"/>
            <stop offset="1" stop-color="#7FDD53"/>
        </linearGradient>
        <linearGradient id="paint2_linear_1171_1238" x1="20.2172" y1="15.5" x2="8.61721" y2="15.5" gradientUnits="userSpaceOnUse">
            <stop stop-color="#2FEA9B"/>
            <stop offset="1" stop-color="#7FDD53"/>
        </linearGradient>
    </defs>
    <ellipse cx="14.5" cy="15" rx="14.5" ry="15" fill="url(#paint0_linear_1171_1238)" fill-opacity="0.15"/>
    <path d="M11.3302 18.6978L7.8982 15.3865C7.71342 15.2078 7.46255 15.1074 7.20093 15.1074C6.93931 15.1074 6.68844 15.2078 6.50365 15.3865C6.11792 15.7586 6.11792 16.3598 6.50365 16.732L10.6379 20.7209C11.0236 21.093 11.6467 21.093 12.0324 20.7209L22.4965 10.6246C22.8822 10.2525 22.8822 9.65128 22.4965 9.27911C22.3117 9.10042 22.0608 9 21.7992 9C21.5376 9 21.2867 9.10042 21.1019 9.27911L11.3302 18.6978Z" fill="url(#paint1_linear_1171_1238)" stroke="url(#paint2_linear_1171_1238)" stroke-width="1.23856"/>
</svg>